<svg width="47" height="98" viewBox="0 0 47 98" fill="none" xmlns="http://www.w3.org/2000/svg">
<path d="M44.1875 77.5C44.8542 78.5833 45.3542 79.625 45.6875 80.625C46.0208 81.625 46.1875 82.3333 46.1875 82.75C46.1875 83.3333 46.0625 83.8333 45.8125 84.25C45.6458 84.5833 45.3958 84.9583 45.0625 85.375C41.7292 86.7917 38.3958 88.125 35.0625 89.375C31.8125 90.5417 28.4792 91.7083 25.0625 92.875C24.2292 93.125 23.3958 93.4167 22.5625 93.75C21.8125 94 20.9792 94.2083 20.0625 94.375C19.8958 94.5417 19.6042 94.7083 19.1875 94.875C18.7708 95.0417 18.2708 95.2083 17.6875 95.375C17.1875 95.5417 16.6875 95.6667 16.1875 95.75C15.6875 95.9167 15.3542 96 15.1875 96C15.0208 95.5833 14.8542 95.3333 14.6875 95.25C14.5208 95.1667 14.3542 95.0833 14.1875 95C13.7708 95 13.4792 95.125 13.3125 95.375C13.2292 95.7083 12.9792 95.9583 12.5625 96.125C12.1458 96.125 11.7708 96.125 11.4375 96.125C11.1042 96.2083 10.8125 96.1667 10.5625 96C9.89583 96.1667 9.27083 96.4583 8.6875 96.875C8.1875 97.2917 7.60417 97.5833 6.9375 97.75C5.6875 97.4167 4.89583 97.25 4.5625 97.25C4.3125 97.3333 4.02083 97.4167 3.6875 97.5C3.10417 97 2.8125 96.2917 2.8125 95.375C2.89583 94.4583 2.6875 93.7083 2.1875 93.125C2.1875 92.0417 2.10417 91.4583 1.9375 91.375C1.77083 91.2083 1.6875 91.0417 1.6875 90.875C1.6875 90.2917 1.72917 89.75 1.8125 89.25C1.89583 88.75 1.85417 88.2083 1.6875 87.625C2.02083 86.2083 2.14583 84.8333 2.0625 83.5C1.97917 82.1667 2.02083 80.8333 2.1875 79.5C2.1875 79.0833 2.1875 78.7083 2.1875 78.375C2.27083 77.9583 2.3125 77.5417 2.3125 77.125C2.3125 75.875 2.39583 75.125 2.5625 74.875C2.72917 74.5417 2.8125 74.1667 2.8125 73.75C2.8125 73.1667 2.77083 72.625 2.6875 72.125C2.6875 71.5417 2.6875 70.9167 2.6875 70.25C2.6875 69.0833 2.6875 67.9583 2.6875 66.875C2.77083 65.7083 2.8125 64.5 2.8125 63.25C2.8125 60.0833 2.60417 56.9167 2.1875 53.75C1.77083 50.5833 1.5625 47.4167 1.5625 44.25C1.5625 40.4167 1.35417 36.625 0.9375 32.875C0.520833 29.125 0.3125 25.3333 0.3125 21.5C0.3125 20.8333 0.3125 19.9167 0.3125 18.75C0.3125 17.5 0.3125 16.25 0.3125 15C0.3125 13.6667 0.3125 12.4167 0.3125 11.25C0.395833 10.0833 0.479167 9.25 0.5625 8.75C0.5625 8.66667 0.8125 8.54167 1.3125 8.375C1.8125 8.20833 2.14583 8.125 2.3125 8.125C2.72917 8.125 3.0625 8.25 3.3125 8.5C3.5625 8.66667 3.85417 8.83333 4.1875 9C5.6875 8.83333 6.5625 8.70833 6.8125 8.625C7.14583 8.45833 7.39583 8.375 7.5625 8.375C8.0625 8.375 8.4375 8.5 8.6875 8.75C9.02083 9 9.27083 9.125 9.4375 9.125C10.8542 8.79167 11.6042 8.75 11.6875 9C11.8542 9.25 12.1458 9.375 12.5625 9.375C13.6458 9.04167 14.3125 8.91667 14.5625 9C14.8125 9.08333 15.0625 9.125 15.3125 9.125C15.7292 9.125 16.1875 9 16.6875 8.75C17.1875 8.41667 17.6458 8.16667 18.0625 8C19.4792 7.58333 20.6458 7.16667 21.5625 6.75C22.8125 6 23.7292 5.5 24.3125 5.25C24.9792 5 25.6458 4.70833 26.3125 4.375C27.7292 3.79167 29.0625 3.20833 30.3125 2.625C31.6458 1.95833 33.0208 1.29167 34.4375 0.625C34.6875 0.625 34.9375 0.625 35.1875 0.625C35.5208 0.541667 35.7708 0.416667 35.9375 0.25C36.1875 0.333333 36.4375 0.375 36.6875 0.375C37.0208 0.375 37.3125 0.375 37.5625 0.375C38.3958 0.708333 38.9375 0.916667 39.1875 1C39.5208 1.5 39.8125 2 40.0625 2.5C40.3958 2.91667 40.7708 3.33333 41.1875 3.75C41.6042 4.5 41.9375 4.875 42.1875 4.875C42.1875 5.125 42.0625 5.41667 41.8125 5.75C41.5625 6 41.4375 6.25 41.4375 6.5C42.1042 7.66667 42.6458 8.75 43.0625 9.75C43.4792 10.75 43.6875 11.4583 43.6875 11.875C43.6875 12.4583 43.6042 12.9583 43.4375 13.375C43.2708 13.7083 43.0625 14.0833 42.8125 14.5C39.6458 16 36.4375 17.5 33.1875 19C30.0208 20.4167 26.7708 21.8333 23.4375 23.25C22.6042 23.5833 21.8125 23.9583 21.0625 24.375C20.3125 24.7083 19.4792 24.9583 18.5625 25.125C18.3958 25.2917 18.0208 25.4583 17.4375 25.625C16.8542 25.7083 16.3958 25.75 16.0625 25.75C16.2292 27.1667 16.3125 28.5833 16.3125 30C16.3958 31.3333 16.4792 32.7083 16.5625 34.125C16.6458 35.2917 16.7708 36.5417 16.9375 37.875C17.1875 39.125 17.3958 40.375 17.5625 41.625C20.3125 40.4583 23.0208 39.2917 25.6875 38.125C28.4375 36.9583 31.1875 35.7917 33.9375 34.625C34.4375 34.7083 34.9375 34.7917 35.4375 34.875C36.0208 34.9583 36.5625 35.0833 37.0625 35.25C37.2292 35.4167 37.3958 35.625 37.5625 35.875C37.7292 36.125 37.9375 36.3333 38.1875 36.5C38.1042 36.9167 38.3542 37.5417 38.9375 38.375C39.6042 39.2083 39.9375 39.8333 39.9375 40.25C39.9375 40.9167 40.0208 41.3333 40.1875 41.5C40.3542 41.5833 40.5208 41.9167 40.6875 42.5C40.7708 43.3333 40.7708 43.7917 40.6875 43.875C41.1042 44.2917 41.4375 44.7083 41.6875 45.125C41.9375 45.5417 42.0625 46.0417 42.0625 46.625C40.8958 48.0417 39.7292 49 38.5625 49.5C37.3958 49.9167 36.2292 50.375 35.0625 50.875C34.6458 51.0417 34.1875 51.2917 33.6875 51.625C33.2708 51.875 32.8542 52.0833 32.4375 52.25C31.7708 52.5 31.1042 52.75 30.4375 53C29.8542 53.1667 29.2292 53.4167 28.5625 53.75C27.4792 54.3333 26.3542 55 25.1875 55.75C24.1042 56.4167 22.9792 56.875 21.8125 57.125C20.8958 57.375 20.2708 57.6667 19.9375 58C19.6875 58.25 19.2292 58.625 18.5625 59.125V62.5V68.75C18.5625 69.5833 18.5625 70.4583 18.5625 71.375C18.5625 72.2083 18.5208 73.0833 18.4375 74C18.2708 74.8333 18.1875 75.5417 18.1875 76.125V78.125C18.6042 77.9583 19.0208 77.8333 19.4375 77.75C19.8542 77.5833 20.2708 77.4167 20.6875 77.25C21.0208 77.1667 21.3125 77.125 21.5625 77.125C21.8958 77.125 22.2292 77.0417 22.5625 76.875C22.9792 76.7917 23.3125 76.7083 23.5625 76.625C23.8125 76.5417 24.1042 76.4167 24.4375 76.25C25.6875 75.5833 26.6458 75.1667 27.3125 75C27.9792 74.75 28.6458 74.5 29.3125 74.25C30.7292 73.75 32.1042 73.25 33.4375 72.75C34.7708 72.1667 36.1042 71.625 37.4375 71.125C38.2708 71.2917 38.8542 71.1667 39.1875 70.75C39.6042 70.8333 39.9375 70.9167 40.1875 71C40.5208 71.0833 40.8958 71.125 41.3125 71.125C42.3125 72.0417 42.9375 72.75 43.1875 73.25C43.4375 73.75 43.7708 74.2083 44.1875 74.625C44.6042 75.375 44.8958 75.75 45.0625 75.75C45.0625 75.9167 44.9375 76.2083 44.6875 76.625C44.4375 76.9583 44.2708 77.25 44.1875 77.5Z" fill="#1EB301"/>
</svg>
